<?xml version="1.0" encoding="UTF-8" standalone="no"?>
<svg
   width="24"
   height="24"
   viewBox="-4 -4 32 32"
   fill="none"
   stroke="white"
   stroke-width="2"
   stroke-linecap="round"
   stroke-linejoin="round"
   class="lucide lucide-qr-code"
   version="1.1"
   id="svg11"
   sodipodi:docname="qr-code-circle.svg"
   inkscape:version="1.3.2 (091e20e, 2023-11-25, custom)"
   xmlns:inkscape="http://www.inkscape.org/namespaces/inkscape"
   xmlns:sodipodi="http://sodipodi.sourceforge.net/DTD/sodipodi-0.dtd"
   xmlns="http://www.w3.org/2000/svg"
   xmlns:svg="http://www.w3.org/2000/svg">
  <defs
     id="defs11" />
  <sodipodi:namedview
     id="namedview11"
     pagecolor="#505050"
     bordercolor="#eeeeee"
     borderopacity="1"
     inkscape:showpageshadow="0"
     inkscape:pageopacity="0"
     inkscape:pagecheckerboard="0"
     inkscape:deskcolor="#505050"
     inkscape:zoom="14.416667"
     inkscape:cx="12.034682"
     inkscape:cy="12"
     inkscape:window-width="1500"
     inkscape:window-height="930"
     inkscape:window-x="-6"
     inkscape:window-y="-6"
     inkscape:window-maximized="1"
     inkscape:current-layer="layer1" />
  <g
     inkscape:groupmode="layer"
     id="layer1"
     inkscape:label="Back">
    <circle
       style="fill:#020817;fill-opacity:1;stroke:none;stroke-width:2.46435"
       id="path12"
       cx="12"
       cy="12"
       r="16" />
  </g>
  <g
     inkscape:groupmode="layer"
     id="layer2"
     inkscape:label="Fore">
    <rect
       width="5"
       height="5"
       x="3"
       y="3"
       rx="1"
       id="rect1" />
    <rect
       width="5"
       height="5"
       x="16"
       y="3"
       rx="1"
       id="rect2" />
    <rect
       width="5"
       height="5"
       x="3"
       y="16"
       rx="1"
       id="rect3" />
    <path
       d="M21 16h-3a2 2 0 0 0-2 2v3"
       id="path3" />
    <path
       d="M21 21v.01"
       id="path4" />
    <path
       d="M12 7v3a2 2 0 0 1-2 2H7"
       id="path5" />
    <path
       d="M3 12h.01"
       id="path6" />
    <path
       d="M12 3h.01"
       id="path7" />
    <path
       d="M12 16v.01"
       id="path8" />
    <path
       d="M16 12h1"
       id="path9" />
    <path
       d="M21 12v.01"
       id="path10" />
    <path
       d="M12 21v-1"
       id="path11" />
  </g>
</svg>
