<svg xmlns="http://www.w3.org/2000/svg" xmlns:svg="http://www.w3.org/2000/svg" id="svg11" width="24" height="24" fill="none" stroke="#fff" stroke-linecap="round" stroke-linejoin="round" stroke-width="2" class="lucide lucide-qr-code" version="1.1" viewBox="-4 -4 32 32"><g id="layer1"><circle style="fill:#020817;fill-opacity:1;stroke:none;stroke-width:2.46435" id="path12" cx="12" cy="12" r="16"/></g><g id="layer2"><rect id="rect1" width="5" height="5" x="3" y="3" rx="1"/><rect id="rect2" width="5" height="5" x="16" y="3" rx="1"/><rect id="rect3" width="5" height="5" x="3" y="16" rx="1"/><path id="path3" d="M21 16h-3a2 2 0 0 0-2 2v3"/><path id="path4" d="M21 21v.01"/><path id="path5" d="M12 7v3a2 2 0 0 1-2 2H7"/><path id="path6" d="M3 12h.01"/><path id="path7" d="M12 3h.01"/><path id="path8" d="M12 16v.01"/><path id="path9" d="M16 12h1"/><path id="path10" d="M21 12v.01"/><path id="path11" d="M12 21v-1"/></g></svg>